<svg class="railroad-diagram" height="101" viewBox="0 0 443.0 101" width="443.0" xmlns="http://www.w3.org/2000/svg" xmlns:xlink="http://www.w3.org/1999/xlink">
<g transform="translate(.5 .5)">
<g>
<path d="M20 30v20m10 -20v20m-10 -10h20" /></g><path d="M40 40h10" /><g>
<path d="M50 40h0.0" /><path d="M393.0 40h0.0" /><g>
<path d="M50.0 40h0.0" /><path d="M195.0 40h0.0" /><path d="M50.0 40h20" /><g class="non-terminal ">
<path d="M70.0 40h21.25" /><path d="M153.75 40h21.25" /><rect height="22" width="62.5" x="91.25" y="29"></rect><text x="122.5" y="44">Group</text></g><path d="M175.0 40h20" /><path d="M50.0 40a10 10 0 0 1 10 10v10a10 10 0 0 0 10 10" /><g class="non-terminal ">
<path d="M70.0 70h0.0" /><path d="M175.0 70h0.0" /><rect height="22" width="105" x="70" y="59"></rect><text x="122.5" y="74">Invocation</text></g><path d="M175.0 70a10 10 0 0 0 10 -10v-10a10 10 0 0 1 10 -10" /></g><g>
<path d="M195.0 40h0.0" /><path d="M393.0 40h0.0" /><path d="M195.0 40a10 10 0 0 0 10 -10v0a10 10 0 0 1 10 -10" /><g>
<path d="M215.0 20h158.0" /></g><path d="M373.0 20a10 10 0 0 1 10 10v0a10 10 0 0 0 10 10" /><path d="M195.0 40h20" /><g>
<path d="M215.0 40h0.0" /><path d="M373.0 40h0.0" /><g>
<path d="M215.0 40h0.0" /><path d="M292.0 40h0.0" /><path d="M215.0 40h20" /><g class="terminal ">
<path d="M235.0 40h4.25" /><path d="M267.75 40h4.25" /><rect height="22" rx="10" ry="10" width="28.5" x="239.25" y="29"></rect><text x="253.5" y="44">></text></g><path d="M272.0 40h20" /><path d="M215.0 40a10 10 0 0 1 10 10v10a10 10 0 0 0 10 10" /><g class="terminal ">
<path d="M235.0 70h0.0" /><path d="M272.0 70h0.0" /><rect height="22" rx="10" ry="10" width="37" x="235" y="59"></rect><text x="253.5" y="74">>></text></g><path d="M272.0 70a10 10 0 0 0 10 -10v-10a10 10 0 0 1 10 -10" /></g><path d="M292.0 40h10" /><g class="non-terminal ">
<path d="M302.0 40h0.0" /><path d="M373.0 40h0.0" /><rect height="22" width="71" x="302" y="29"></rect><text x="337.5" y="44">VarRef</text></g></g><path d="M373.0 40h20" /></g></g><path d="M393.0 40h10" /><path d="M 403.0 40 h 20 m -10 -10 v 20 m 10 -20 v 20"></path></g><style>/* <![CDATA[ */

svg.railroad-diagram { background: transparent; }
svg.railroad-diagram path { stroke-width: 2; stroke: #6d6459; fill: none; }
svg.railroad-diagram text { font: 13px ui-monospace, Consolas, monospace; text-anchor: middle;
  fill: #22201d; }
svg.railroad-diagram text.comment { font: italic 11px ui-monospace, Consolas, monospace; }
svg.railroad-diagram rect { stroke-width: 2; stroke: #e2dbd1; fill: #fff; }
svg.railroad-diagram rect.group-box { stroke: #a4621b; stroke-dasharray: 8 4; fill: none; }
svg.railroad-diagram .non-terminal rect { stroke: #a4621b; }
@media (prefers-color-scheme: dark) {
  svg.railroad-diagram path { stroke: #a99d8f; }
  svg.railroad-diagram text { fill: #efe7dd; }
  svg.railroad-diagram rect { stroke: #322c26; fill: #1b1815; }
  svg.railroad-diagram rect.group-box, svg.railroad-diagram .non-terminal rect { stroke: #e0a458; }
}

/* ]]> */
</style></svg>
