<svg class="railroad-diagram" height="109" viewBox="0 0 407.5 109" width="407.5" xmlns="http://www.w3.org/2000/svg" xmlns:xlink="http://www.w3.org/1999/xlink">
<g transform="translate(.5 .5)">
<g>
<path d="M20 30v20m10 -20v20m-10 -10h20" /></g><path d="M40 40h10" /><g>
<path d="M50 40h0.0" /><path d="M357.5 40h0.0" /><g class="non-terminal ">
<path d="M50.0 40h0.0" /><path d="M129.5 40h0.0" /><rect height="22" width="79.5" x="50" y="29"></rect><text x="89.75" y="44">Product</text></g><path d="M129.5 40h10" /><g>
<path d="M139.5 40h0.0" /><path d="M357.5 40h0.0" /><path d="M139.5 40a10 10 0 0 0 10 -10v0a10 10 0 0 1 10 -10" /><g>
<path d="M159.5 20h178.0" /></g><path d="M337.5 20a10 10 0 0 1 10 10v0a10 10 0 0 0 10 10" /><path d="M139.5 40h20" /><g>
<path d="M159.5 40h0.0" /><path d="M337.5 40h0.0" /><path d="M159.5 40h10" /><g>
<path d="M169.5 40h0.0" /><path d="M327.5 40h0.0" /><g>
<path d="M169.5 40h0.0" /><path d="M238.0 40h0.0" /><path d="M169.5 40h20" /><g class="terminal ">
<path d="M189.5 40h0.0" /><path d="M218.0 40h0.0" /><rect height="22" rx="10" ry="10" width="28.5" x="189.5" y="29"></rect><text x="203.75" y="44">+</text></g><path d="M218.0 40h20" /><path d="M169.5 40a10 10 0 0 1 10 10v10a10 10 0 0 0 10 10" /><g class="terminal ">
<path d="M189.5 70h0.0" /><path d="M218.0 70h0.0" /><rect height="22" rx="10" ry="10" width="28.5" x="189.5" y="59"></rect><text x="203.75" y="74">-</text></g><path d="M218.0 70a10 10 0 0 0 10 -10v-10a10 10 0 0 1 10 -10" /></g><path d="M238.0 40h10" /><g class="non-terminal ">
<path d="M248.0 40h0.0" /><path d="M327.5 40h0.0" /><rect height="22" width="79.5" x="248" y="29"></rect><text x="287.75" y="44">Product</text></g></g><path d="M327.5 40h10" /><path d="M169.5 40a10 10 0 0 0 -10 10v29a10 10 0 0 0 10 10" /><g>
<path d="M169.5 89h158.0" /></g><path d="M327.5 89a10 10 0 0 0 10 -10v-29a10 10 0 0 0 -10 -10" /></g><path d="M337.5 40h20" /></g></g><path d="M357.5 40h10" /><path d="M 367.5 40 h 20 m -10 -10 v 20 m 10 -20 v 20"></path></g><style>/* <![CDATA[ */

svg.railroad-diagram { background: transparent; }
svg.railroad-diagram path { stroke-width: 2; stroke: #6d6459; fill: none; }
svg.railroad-diagram text { font: 13px ui-monospace, Consolas, monospace; text-anchor: middle;
  fill: #22201d; }
svg.railroad-diagram text.comment { font: italic 11px ui-monospace, Consolas, monospace; }
svg.railroad-diagram rect { stroke-width: 2; stroke: #e2dbd1; fill: #fff; }
svg.railroad-diagram rect.group-box { stroke: #a4621b; stroke-dasharray: 8 4; fill: none; }
svg.railroad-diagram .non-terminal rect { stroke: #a4621b; }
@media (prefers-color-scheme: dark) {
  svg.railroad-diagram path { stroke: #a99d8f; }
  svg.railroad-diagram text { fill: #efe7dd; }
  svg.railroad-diagram rect { stroke: #322c26; fill: #1b1815; }
  svg.railroad-diagram rect.group-box, svg.railroad-diagram .non-terminal rect { stroke: #e0a458; }
}

/* ]]> */
</style></svg>
