<svg class="railroad-diagram" height="131" viewBox="0 0 335.0 131" width="335.0" xmlns="http://www.w3.org/2000/svg" xmlns:xlink="http://www.w3.org/1999/xlink">
<g transform="translate(.5 .5)">
<g>
<path d="M20 21v20m10 -20v20m-10 -10h20" /></g><g>
<path d="M40 31h0.0" /><path d="M295.0 31h0.0" /><path d="M40.0 31h20" /><g class="non-terminal ">
<path d="M60.0 31h55.0" /><path d="M220.0 31h55.0" /><rect height="22" width="105" x="115" y="20"></rect><text x="167.5" y="35">Identifier</text></g><path d="M275.0 31h20" /><path d="M40.0 31a10 10 0 0 1 10 10v19a10 10 0 0 0 10 10" /><g>
<path d="M60.0 70h0.0" /><path d="M275.0 70h0.0" /><g class="non-terminal ">
<path d="M60.0 70h0.0" /><path d="M131.0 70h0.0" /><rect height="22" width="71" x="60" y="59"></rect><text x="95.5" y="74">Digits</text></g><path d="M131.0 70h10" /><g>
<path d="M141.0 70h0.0" /><path d="M275.0 70h0.0" /><path d="M141.0 70a10 10 0 0 0 10 -10v0a10 10 0 0 1 10 -10" /><g>
<path d="M161.0 50h94.0" /></g><path d="M255.0 50a10 10 0 0 1 10 10v0a10 10 0 0 0 10 10" /><path d="M141.0 70h20" /><g>
<path d="M161.0 70h0.0" /><path d="M255.0 70h0.0" /><path d="M161.0 70h20" /><g class="terminal ">
<path d="M181.0 70h12.75" /><path d="M222.25 70h12.75" /><rect height="22" rx="10" ry="10" width="28.5" x="193.75" y="59"></rect><text x="208" y="74">+</text></g><path d="M235.0 70h20" /><path d="M161.0 70a10 10 0 0 1 10 10v10a10 10 0 0 0 10 10" /><g class="terminal ">
<path d="M181.0 100h0.0" /><path d="M235.0 100h0.0" /><rect height="22" rx="10" ry="10" width="54" x="181" y="89"></rect><text x="208" y="104">+raw</text></g><path d="M235.0 100a10 10 0 0 0 10 -10v-10a10 10 0 0 1 10 -10" /></g><path d="M255.0 70h20" /></g></g><path d="M275.0 70a10 10 0 0 0 10 -10v-19a10 10 0 0 1 10 -10" /></g><path d="M 295.0 31 h 20 m -10 -10 v 20 m 10 -20 v 20"></path></g><style>/* <![CDATA[ */

svg.railroad-diagram { background: transparent; }
svg.railroad-diagram path { stroke-width: 2; stroke: #6d6459; fill: none; }
svg.railroad-diagram text { font: 13px ui-monospace, Consolas, monospace; text-anchor: middle;
  fill: #22201d; }
svg.railroad-diagram text.comment { font: italic 11px ui-monospace, Consolas, monospace; }
svg.railroad-diagram rect { stroke-width: 2; stroke: #e2dbd1; fill: #fff; }
svg.railroad-diagram rect.group-box { stroke: #a4621b; stroke-dasharray: 8 4; fill: none; }
svg.railroad-diagram .non-terminal rect { stroke: #a4621b; }
@media (prefers-color-scheme: dark) {
  svg.railroad-diagram path { stroke: #a99d8f; }
  svg.railroad-diagram text { fill: #efe7dd; }
  svg.railroad-diagram rect { stroke: #322c26; fill: #1b1815; }
  svg.railroad-diagram rect.group-box, svg.railroad-diagram .non-terminal rect { stroke: #e0a458; }
}

/* ]]> */
</style></svg>
